<svg version="1.1" id="Layer_1" xmlns="http://www.w3.org/2000/svg" xmlns:xlink="http://www.w3.org/1999/xlink" x="0px" y="0px"
	 width="100%" viewBox="0 0 496 496" enable-background="new 0 0 496 496" xml:space="preserve">
<path fill="#000000" opacity="1.000000" stroke="none" 
	d="
M497.000000,230.000000 
	C497.000000,283.020905 497.000000,336.041779 496.673767,389.649841 
	C495.460541,390.693634 494.473969,391.022888 493.701691,391.626343 
	C483.669891,399.465485 470.594513,400.924500 460.020264,407.680847 
	C458.341553,408.753387 455.829315,408.919525 453.722534,408.854462 
	C445.002594,408.585205 437.859009,412.438416 431.370026,417.529938 
	C427.763458,420.359833 423.926300,422.450287 419.794952,424.282227 
	C414.105225,426.805206 408.226593,428.466583 402.077148,429.321686 
	C390.693939,430.904510 379.721191,433.775513 368.674683,437.221130 
	C350.798035,442.797180 331.944305,441.214783 313.654694,438.819702 
	C297.845032,436.749390 282.271362,432.622498 267.247864,426.952698 
	C253.265930,421.675903 239.624329,422.672424 225.166077,426.237213 
	C207.373276,430.624146 190.138947,427.940887 175.850174,414.640808 
	C171.570038,410.656830 168.051392,406.010498 163.857758,401.997833 
	C155.084061,393.602722 143.719940,390.464813 132.497879,387.349823 
	C122.489159,384.571655 112.426575,383.624573 101.922768,386.118988 
	C93.918930,388.019684 85.620796,386.241699 77.996941,382.986938 
	C66.382378,378.028473 55.096844,372.282104 42.923817,368.694885 
	C40.956158,368.115082 39.253639,367.082611 38.037113,365.398987 
	C33.632679,359.303528 31.338634,352.772308 33.834671,345.217987 
	C35.149200,341.239532 35.970867,337.159241 35.764908,332.938171 
	C35.047520,318.235443 33.650677,303.683105 27.162386,290.117767 
	C25.253111,286.125977 25.411894,282.133362 28.010536,278.261353 
	C33.393093,270.241364 33.258526,269.215973 26.886715,261.975128 
	C21.901501,256.309998 21.077524,246.591934 25.871317,242.908142 
	C29.791075,239.896011 34.237953,237.573990 37.970016,234.206863 
	C39.642136,232.698273 41.771305,233.305161 43.550434,234.496521 
	C44.789410,235.326157 45.090889,236.492416 44.690914,237.993088 
	C42.895172,244.730637 42.989021,244.868805 49.729893,248.024460 
	C51.456722,246.820114 53.498356,245.742905 53.078602,243.086975 
	C52.464478,239.201233 52.095787,235.215347 50.909271,231.499924 
	C49.874142,228.258575 49.635139,225.270203 51.121281,222.317108 
	C53.141666,218.302444 52.649548,214.634476 50.288830,210.989822 
	C48.818348,208.719543 47.274895,206.144714 48.393318,203.500916 
	C51.949314,195.094971 53.702148,185.799759 59.404480,178.459488 
	C63.082100,173.725494 63.595001,169.505188 61.812458,163.728439 
	C58.710541,153.675934 60.179859,140.559204 69.954109,132.952240 
	C80.475388,124.763885 92.031639,121.351974 104.883919,122.482788 
	C114.490807,123.328064 123.109230,121.974640 130.681122,115.739876 
	C132.634445,114.131500 134.892258,112.871941 137.346481,112.424889 
	C147.902374,110.502052 158.241058,108.129547 166.719940,100.917206 
	C167.190414,100.516998 167.953491,100.440430 168.594330,100.263802 
	C184.705688,95.823212 199.935364,88.913559 214.827682,81.689667 
	C247.165268,66.003510 278.740570,64.891884 311.212311,81.292603 
	C332.403259,91.995674 354.532227,100.226738 379.247498,97.080566 
	C387.676147,96.007629 396.203766,97.548157 404.626038,98.741447 
	C424.359558,101.537346 437.410858,113.105095 445.941528,130.447174 
	C447.647095,133.914459 449.408142,137.293411 451.999329,140.153946 
	C459.011169,147.894653 463.173004,157.001541 465.355530,167.141556 
	C466.795624,173.832397 468.571838,180.389893 472.775574,186.062119 
	C478.972443,194.423645 483.425751,203.746002 486.928131,213.499069 
	C489.165649,219.729919 492.791534,225.020050 497.000000,230.000000 
M280.222809,234.014618 
	C277.747345,234.064392 275.306580,233.951096 272.802185,232.473526 
	C274.318024,229.741028 272.305634,226.619781 273.305969,224.287720 
	C275.417236,219.365814 273.104889,217.226959 268.940430,215.672363 
	C270.762482,213.938126 272.290283,212.483948 273.600555,211.236816 
	C273.607361,209.286118 271.685516,209.676056 271.109192,208.021255 
	C274.147278,207.243118 273.836609,204.966827 273.876251,202.315079 
	C273.915649,199.679642 273.185791,197.120926 273.548187,194.413681 
	C273.761047,192.823669 274.662933,189.389740 271.283844,189.535126 
	C268.036041,189.674850 263.872559,186.949280 261.663452,191.800217 
	C259.874573,195.728409 260.022583,200.027664 259.307678,204.157471 
	C259.075043,205.501282 259.269684,206.868607 257.575684,207.311249 
	C256.795380,207.515152 255.793961,207.961243 255.437561,206.884201 
	C254.701691,204.660217 252.080948,203.990860 251.647064,201.250198 
	C250.961472,196.919601 247.629410,194.122940 243.462540,193.703751 
	C240.245209,193.380081 240.003418,191.793655 240.275635,189.469925 
	C235.857788,189.117264 231.906525,188.841980 228.390991,191.866516 
	C229.800308,194.545471 231.164307,197.138290 232.558243,199.787994 
	C231.706375,201.352066 228.341415,202.608780 231.827209,204.750061 
	C230.341537,206.881577 232.281906,209.486618 231.197662,211.398010 
	C229.674835,214.082626 229.948257,216.602325 230.643677,219.265442 
	C231.424713,222.256454 232.044540,224.941406 230.998932,228.305435 
	C228.974991,234.817154 231.946396,237.750305 239.092712,237.650070 
	C241.758987,237.612671 243.973450,237.130066 245.393570,234.572510 
	C246.812378,232.017380 245.182343,230.276123 243.792526,228.073746 
	C249.368057,227.172333 244.689804,221.688217 247.803162,219.220322 
	C251.212723,222.005341 253.538284,225.767181 254.831528,229.296509 
	C256.628815,234.201370 261.250977,231.100388 262.847626,233.223312 
	C264.876160,235.920532 266.058838,238.552811 270.118469,237.616989 
	C273.867340,236.752762 277.478760,235.581299 281.471222,234.125275 
	C282.222778,234.424698 283.117432,234.534134 283.337067,235.526901 
	C283.114990,237.051208 281.093231,235.838058 280.650726,237.580933 
	C291.565979,237.580933 302.367798,237.850143 313.147675,237.480484 
	C319.667847,237.256882 321.766571,234.986740 322.539307,228.444626 
	C322.735779,226.781158 324.306641,226.686035 324.539917,225.383087 
	C315.468262,223.105072 305.798492,226.496704 296.620819,222.773972 
	C298.003113,220.092484 299.821411,219.598557 301.932922,219.550232 
	C306.428680,219.447357 310.941559,218.974197 315.413666,219.234039 
	C321.361725,219.579651 319.893158,215.102570 320.297363,212.097977 
	C320.754028,208.703278 318.564880,207.381500 315.380035,207.376419 
	C311.048645,207.369522 306.717407,207.301041 302.385956,207.281769 
	C300.045044,207.271332 299.032715,205.853531 299.066010,203.792618 
	C299.100525,201.656937 300.971375,201.774368 302.409698,201.747864 
	C307.073456,201.661926 311.739532,201.712509 316.404114,201.659225 
	C319.247833,201.626740 322.571747,201.889191 322.745087,197.846420 
	C323.002106,191.851929 321.061066,189.364166 316.357513,189.298447 
	C308.194885,189.184372 300.025238,189.081329 291.868256,189.314026 
	C289.004395,189.395721 284.916595,187.504807 283.602539,191.720200 
	C282.120087,196.475845 287.353058,195.622040 289.474182,197.285477 
	C277.733643,203.385345 286.218353,214.382355 282.367035,222.513840 
	C286.066650,223.096115 289.659943,222.841705 291.192383,226.632217 
	C289.471222,227.873962 287.538910,226.922379 285.822449,227.486816 
	C286.306396,228.091980 287.523102,227.925873 287.375061,229.497025 
	C284.668121,229.929474 283.299408,232.580719 280.222809,234.014618 
M359.453064,295.956726 
	C357.881836,295.120605 357.715820,294.171509 359.623810,293.873657 
	C362.015198,293.500305 364.470642,293.537354 367.165344,293.381836 
	C365.954651,291.551758 363.484833,293.217407 362.765015,290.803406 
	C364.768646,289.977997 364.885468,288.427307 363.228363,286.272186 
	C366.964722,286.602356 367.962921,284.699402 368.241760,282.264374 
	C364.133392,281.718964 366.171204,276.887878 363.450562,275.499878 
	C365.552460,271.624695 362.133667,269.894806 360.225342,267.919830 
	C361.708679,264.762238 365.595978,266.742767 367.068726,264.022186 
	C366.474548,261.335999 362.975311,261.128906 362.368591,258.190063 
	C364.456177,257.664124 367.482971,257.507568 366.286224,254.159317 
	C365.305450,251.415268 362.681732,252.350922 360.632050,252.475662 
	C358.827209,252.585495 357.053467,253.160660 355.247681,253.313629 
	C353.246552,253.483154 350.483917,253.231613 350.457184,255.685791 
	C350.431885,258.001892 348.717438,261.485809 352.956085,262.401764 
	C348.175171,268.863556 333.682739,271.091278 329.672180,266.181061 
	C332.035126,264.834442 335.958679,267.004913 337.103302,263.412476 
	C338.177551,260.040833 333.119110,261.079315 332.734070,258.293945 
	C334.073090,257.153046 337.410828,257.892487 336.558807,254.781693 
	C335.895386,252.359268 333.611298,252.448364 331.593536,252.381561 
	C326.177032,252.202271 320.549377,251.630707 319.502136,259.679047 
	C320.847107,260.717682 322.359558,262.478333 320.343567,264.895050 
	C318.171631,267.498749 315.587799,267.452881 312.429688,265.967743 
	C313.265656,264.104675 313.352936,262.033173 311.848419,260.879333 
	C308.087860,257.995178 305.031769,254.116577 300.238800,252.634842 
	C291.081238,249.803802 282.431396,251.662125 274.054474,255.482880 
	C269.948975,257.355438 269.516174,262.142731 273.176880,264.632599 
	C275.146698,265.972351 275.096039,268.251221 276.975891,269.863159 
	C274.044891,271.166077 270.975494,270.634430 269.023499,272.592285 
	C267.191681,274.429565 263.832611,276.527832 268.515442,278.948059 
	C270.243683,279.841248 270.190582,281.192261 270.051392,282.742737 
	C269.113251,293.194092 269.992767,294.220032 280.473083,295.204102 
	C282.244659,295.370453 284.807007,295.147736 284.932037,297.439636 
	C285.149750,301.431885 287.857697,300.645874 290.216003,300.965454 
	C297.210968,301.913391 302.732422,295.439117 309.352203,297.601410 
	C310.634033,294.273407 311.777649,291.566467 312.710052,288.788696 
	C313.302002,287.025177 313.657013,284.618164 311.179443,284.427582 
	C307.341949,284.132477 303.667938,283.317291 299.948090,282.498169 
	C297.677338,281.998169 296.090179,283.285980 295.312775,285.396942 
	C294.297882,288.152710 292.454254,288.768280 289.792145,287.907257 
	C287.310211,287.104553 284.781769,286.445587 282.531097,285.797424 
	C281.746613,283.608429 283.965607,284.207031 284.264618,283.227295 
	C283.501556,282.395386 281.835144,282.878998 281.634491,281.130280 
	C282.514008,280.875275 283.394226,280.620056 284.255096,280.370483 
	C282.379547,278.791077 280.002502,277.808197 278.336487,274.921387 
	C284.131317,275.186829 286.611328,270.693634 290.766998,268.583069 
	C288.673737,266.350159 286.065277,268.100861 283.813324,266.075378 
	C288.659058,265.961884 292.933105,265.191376 297.172668,266.398804 
	C299.533630,267.071136 302.591095,265.478790 304.252289,267.745117 
	C306.143585,270.325470 307.918427,269.701263 310.300873,268.924194 
	C314.339813,267.606873 318.323456,267.696289 321.939331,270.531006 
	C320.860474,272.374420 319.951294,273.927917 319.183350,275.240051 
	C320.621765,280.464844 327.019653,281.291626 328.365967,286.271637 
	C326.440277,287.952209 324.176666,286.836365 322.410858,287.783539 
	C319.896393,289.132355 321.017456,291.404724 320.687012,293.152405 
	C322.271515,294.127319 324.136230,293.062561 325.167450,295.038910 
	C323.920654,296.605072 320.084930,298.907837 324.441071,300.246429 
	C328.139587,301.382874 332.551453,301.286194 337.205597,299.629883 
	C335.213470,297.681183 335.541260,295.037781 333.299286,293.825653 
	C335.922424,291.098175 336.068176,288.108856 333.495758,285.126221 
	C341.713654,282.657990 349.634674,283.080109 358.408691,285.082520 
	C355.382477,288.454193 352.192535,286.225647 349.738190,287.455078 
	C353.005524,290.773895 353.202637,294.611359 350.079987,298.272278 
	C354.306458,300.291870 358.641479,300.938080 363.168121,300.502655 
	C364.226532,300.400787 365.112640,299.816864 365.241943,298.677277 
	C365.371704,297.533997 364.647003,296.740631 363.607971,296.492859 
	C362.484436,296.224915 361.298309,296.219330 359.453064,295.956726 
M149.285919,291.421021 
	C148.100464,291.193329 146.604889,292.009430 145.544830,289.932556 
	C150.336334,290.064178 154.109467,287.686066 158.115768,286.112305 
	C159.082092,278.373962 158.583359,277.341187 152.280045,273.941315 
	C152.587448,270.136414 156.292892,271.411316 158.355194,270.224609 
	C156.751144,268.055603 158.254074,262.596619 161.061310,260.849304 
	C162.281509,260.089813 163.468231,259.683533 163.244736,258.039124 
	C162.988129,256.151001 161.402603,256.516754 160.144516,256.305847 
	C159.507904,256.199127 158.395081,256.005981 158.351578,255.721390 
	C157.510895,250.219971 153.736237,252.689987 150.890732,252.556396 
	C150.106094,254.529144 151.187286,257.208435 149.462372,257.927765 
	C143.832489,260.275574 138.514023,263.007538 133.796951,266.922455 
	C132.944824,267.629669 131.190735,267.640747 130.522797,266.737640 
	C129.080780,264.787903 126.471893,264.730560 125.067940,263.347382 
	C124.700943,260.510101 127.686440,259.539764 127.503769,257.286652 
	C124.392860,253.118698 119.987961,252.248337 115.230202,252.324005 
	C113.944794,252.344452 112.596069,252.149338 111.950195,253.887772 
	C111.029236,256.366638 114.359642,255.084366 114.301331,256.880890 
	C111.533478,257.423492 109.584579,259.014740 108.831589,261.809601 
	C107.818832,265.568604 112.157410,265.646606 113.379211,267.883087 
	C111.900101,270.503998 106.770538,267.256287 107.454712,272.202667 
	C105.284309,272.485016 102.999146,270.139618 101.437187,273.032806 
	C103.801521,275.548889 107.111412,273.227692 109.521782,274.817993 
	C107.250168,278.824646 109.091125,281.793823 112.064491,284.846466 
	C108.467201,285.437378 104.669525,284.849762 103.316620,288.715027 
	C106.339630,289.634705 110.159721,288.040375 113.885025,290.880737 
	C112.389297,291.214905 111.617523,291.423981 110.832817,291.556396 
	C107.307220,292.151184 106.883621,295.076385 106.987434,297.626801 
	C107.098320,300.351105 109.591713,300.675446 111.901428,300.633270 
	C113.898499,300.596802 115.896660,300.616272 117.893524,300.573059 
	C120.936760,300.507263 121.775322,298.297974 122.089569,295.891876 
	C122.471924,292.964325 120.080620,293.496063 118.379784,293.205872 
	C117.322350,293.025452 115.931908,293.296021 115.762024,291.098022 
	C121.493942,290.139404 127.273277,290.891205 132.995026,290.698914 
	C140.133560,290.459015 143.683212,293.375336 145.286682,300.353394 
	C150.442535,301.556335 154.905212,299.196259 160.693375,297.626770 
	C157.041779,294.446869 154.677948,291.147217 149.285919,291.421021 
M171.783325,300.624146 
	C174.675461,300.309265 178.426910,301.924225 180.249130,299.062042 
	C184.764160,291.970337 191.563431,294.153992 197.815125,294.016357 
	C200.039978,293.967377 201.617386,294.907257 201.423370,297.648499 
	C201.274246,299.755341 202.729584,300.562958 204.638184,300.583221 
	C207.466522,300.613251 210.296936,300.624573 213.123840,300.547546 
	C214.990219,300.496704 216.220642,299.509583 216.710266,297.658386 
	C217.148895,296.000031 216.717758,294.904114 215.123169,293.961975 
	C212.998474,292.706635 212.185562,290.428986 211.636490,288.120178 
	C210.947845,285.224579 210.464340,282.269958 209.606720,279.426971 
	C208.142197,274.572205 207.199005,269.408844 200.303940,268.972748 
	C197.004730,268.764069 197.257996,265.826416 199.409302,264.435059 
	C203.783127,261.606262 202.217514,257.345306 201.652100,254.120026 
	C201.116501,251.064804 197.125580,252.467575 194.609497,252.280563 
	C192.127594,252.096115 189.619644,252.221191 187.124390,252.272614 
	C185.580917,252.304428 183.868088,252.509338 183.644745,254.379196 
	C183.388824,256.521637 182.066650,257.056549 180.332138,257.441559 
	C178.863098,257.767670 177.876068,258.907745 177.955780,260.291016 
	C178.154907,263.746033 176.332550,264.579712 173.368027,264.471466 
	C172.126099,264.426086 171.119644,265.029999 170.828552,266.631531 
	C171.527588,268.748535 175.589874,269.419922 173.792221,273.023499 
	C172.158722,276.298004 172.297226,279.988525 172.360611,283.837524 
	C167.000000,283.847168 166.329788,288.248596 166.747665,291.432953 
	C167.137772,294.405548 166.407990,296.598297 165.273636,298.801270 
	C166.895004,301.031769 169.016571,300.497070 171.783325,300.624146 
M195.304535,221.515182 
	C191.920166,220.738510 188.380554,221.055313 185.036880,219.697327 
	C183.200455,218.951492 180.600845,219.068314 179.740570,221.220154 
	C177.678986,226.376816 174.123383,225.503220 170.396851,223.925903 
	C168.941833,223.310043 166.958420,223.965897 166.171021,222.575150 
	C165.671814,220.614609 167.409164,221.019287 167.844879,220.199005 
	C163.642746,219.217102 166.318161,213.963257 162.616211,212.318558 
	C168.195801,212.381424 170.149841,207.022202 174.957474,205.824966 
	C172.715790,203.194977 169.459457,205.636154 167.061493,203.243652 
	C174.202255,202.009903 181.168396,202.020630 186.786972,204.326492 
	C190.974411,206.045013 193.625793,206.698578 197.139847,204.565079 
	C197.873962,195.713379 190.691925,192.782471 185.245895,190.287903 
	C175.988495,186.047546 166.295258,188.331116 157.340775,192.791840 
	C154.227661,194.342682 153.113678,199.799454 155.603516,201.025101 
	C158.440155,202.421448 158.864090,205.035309 161.098541,207.612915 
	C155.377090,207.730057 151.210480,209.230301 148.981644,213.960373 
	C152.206253,216.945694 152.206268,216.945694 152.584442,223.039749 
	C152.992355,229.613083 155.356369,231.823318 162.167786,232.147888 
	C164.278107,232.248428 167.206619,231.542740 168.129776,233.653595 
	C169.322845,236.381592 170.357986,238.244873 173.678375,238.036743 
	C176.333679,237.870285 179.419403,238.542633 181.483398,237.015808 
	C185.088562,234.348862 188.958862,234.664261 192.913727,234.626068 
	C194.883423,234.607056 196.853439,234.622757 199.413971,234.622757 
	C197.494217,232.811508 195.192642,234.273285 194.032257,232.575790 
	C194.573166,228.966003 198.407623,226.006073 195.304535,221.515182 
M248.856293,283.260132 
	C247.149078,280.985931 248.570633,278.434052 248.234909,276.021057 
	C247.461487,270.461853 249.614166,267.473114 254.801743,265.737000 
	C257.023804,264.993317 259.022644,263.582520 261.122223,262.475220 
	C259.544739,259.885071 256.078827,261.086609 254.629791,258.228760 
	C257.682281,257.502869 260.939880,257.096436 260.413879,252.363815 
	C247.546448,252.363815 234.772003,252.324524 221.998383,252.410034 
	C220.261292,252.421646 218.977661,253.590317 218.438004,255.173019 
	C218.658463,256.973846 220.957336,256.113617 221.269379,257.836914 
	C220.258408,258.282898 219.248093,258.728577 218.172012,259.203278 
	C221.491272,262.533936 221.491272,262.533936 220.233078,265.773041 
	C221.776978,265.875732 223.258682,266.017395 224.743408,266.065735 
	C232.162872,266.307312 231.957092,266.302704 232.104813,273.941315 
	C232.164108,277.007355 230.396179,280.726898 232.762314,283.083771 
	C236.379562,286.686890 234.217072,290.648651 233.654694,293.915619 
	C232.619339,299.930359 232.460815,300.574310 238.468643,300.620331 
	C240.466797,300.635620 242.465393,300.597443 244.463745,300.579010 
	C246.234589,300.562683 247.974274,300.101746 248.636749,298.384247 
	C250.460220,293.656799 250.930420,288.807526 248.856293,283.260132 
M209.215012,237.555695 
	C212.212219,237.539444 215.226776,237.718521 218.201920,237.454025 
	C221.407104,237.169067 223.548935,235.918930 222.394257,231.916916 
	C220.570160,225.594849 223.375961,218.629120 219.754410,212.325531 
	C220.730545,211.836853 221.697235,211.352905 223.189804,210.605682 
	C219.179901,208.054108 222.208618,205.948273 223.113281,204.291992 
	C222.775909,201.940704 220.574127,202.867920 219.850052,201.134552 
	C224.217224,199.013153 222.267151,195.516159 221.553101,192.207932 
	C221.137054,190.280380 219.908722,189.357315 218.022324,189.333282 
	C214.691910,189.290848 211.357132,189.238297 208.030609,189.362274 
	C205.630447,189.451721 203.522339,191.389954 204.976303,193.146347 
	C207.799744,196.557144 204.840790,203.214645 211.777695,203.802673 
	C209.745605,206.449295 206.253693,203.851135 204.680115,207.157471 
	C205.383286,208.449615 206.212158,209.972778 206.942276,211.314453 
	C206.254074,212.637054 204.081528,212.174652 204.494247,213.798264 
	C205.466751,217.623962 203.610214,221.454727 204.504044,225.149872 
	C205.510620,229.311157 204.225006,234.275452 209.215012,237.555695 
M72.392921,242.128967 
	C71.494392,243.018768 71.387871,244.156250 71.383377,245.329834 
	C71.377625,246.831924 71.316803,248.390030 72.953110,249.175507 
	C74.164650,249.757111 75.244377,249.211044 76.088951,248.369995 
	C77.333992,247.130112 77.968887,245.573151 77.274887,243.869034 
	C76.504372,241.977081 75.091644,241.014832 72.392921,242.128967 
M226.625275,313.638458 
	C223.786697,314.571533 224.494232,317.014374 224.411194,319.043396 
	C224.338745,320.814056 224.057251,323.109650 226.616211,323.241516 
	C229.179230,323.373627 231.106644,321.873505 231.453156,319.226013 
	C231.848236,316.207489 230.574753,314.097839 226.625275,313.638458 
M247.165253,314.350403 
	C242.973312,315.755066 243.980316,319.436829 243.447952,322.849884 
	C245.593262,320.029419 247.871918,321.700714 250.323990,322.726959 
	C249.425613,319.556030 249.149902,316.919525 247.165253,314.350403 
M221.702942,321.344879 
	C221.702942,319.447266 221.702942,317.549683 221.702942,315.280701 
	C220.472931,316.281036 220.882416,317.787750 219.441452,317.856903 
	C218.081345,317.016327 218.696960,314.474396 216.193512,314.292145 
	C214.500412,316.199493 215.449142,318.465332 215.384262,320.714661 
	C216.673965,320.476868 217.780121,318.744385 218.715836,320.940765 
	C219.177612,322.024658 219.861359,323.750519 221.702942,321.344879 
M208.384094,317.847900 
	C208.247009,319.720337 208.109909,321.592743 207.960342,323.635651 
	C210.002762,322.635193 210.002762,322.635193 209.840851,313.553711 
	C205.934357,313.392944 209.001022,316.066650 208.384094,317.847900 
M59.189354,241.124207 
	C56.648895,242.803207 56.648895,242.803207 59.399128,247.409348 
	C59.696129,249.125870 57.551777,247.904510 57.797157,249.648453 
	C60.959225,249.361282 63.062279,248.156387 60.455093,245.140045 
	C59.162323,243.644394 60.876587,242.246262 59.189354,241.124207 
M201.981598,313.646057 
	C195.534866,313.245209 197.764694,317.717529 197.482681,321.527008 
	C198.785965,320.457245 199.673691,319.826111 200.436874,319.069366 
	C200.985962,318.524902 200.271423,318.317413 199.977310,317.993500 
	C196.932144,314.639740 200.795929,315.003723 201.981598,313.646057 
M235.861145,313.585785 
	C235.696213,313.596069 235.521912,313.576782 235.369034,313.625153 
	C235.222702,313.671478 235.098618,313.788116 234.964752,313.873840 
	C237.166443,316.123047 235.758179,319.374634 237.051514,322.757355 
	C238.194427,319.258331 236.806732,316.183533 239.221710,313.831604 
	C237.994263,313.750397 237.167847,313.695709 235.861145,313.585785 
M264.811890,321.656342 
	C266.935089,319.467468 264.156158,315.930359 267.621246,313.884247 
	C265.637390,313.784973 264.333282,313.719696 262.431396,313.624542 
	C265.103180,315.994354 263.964935,318.818420 264.811890,321.656342 
M257.563110,323.025635 
	C259.985443,319.374268 259.673767,318.929810 252.927399,316.374481 
	C253.178558,319.051483 257.785492,318.122406 257.411713,320.656494 
	C256.792511,323.136017 254.539154,321.741577 253.918259,323.618042 
	C255.113937,323.499420 256.069916,323.404602 257.563110,323.025635 
M67.861755,241.716568 
	C66.957100,241.130341 66.054054,241.085861 64.620209,242.051682 
	C66.835457,243.457947 65.660675,246.089569 67.211128,248.798828 
	C67.549286,246.016083 67.782997,244.092804 67.861755,241.716568 
M271.447357,317.103729 
	C271.767487,318.636444 270.792328,320.416626 272.284424,321.778656 
	C274.209961,319.213165 273.859161,316.862549 271.798279,313.592163 
	C271.587616,315.247589 271.505798,315.890564 271.447357,317.103729 
z"/>
<path fill="#000000" opacity="1.000000" stroke="none" 
	d="
M131.022339,286.974976 
	C126.030792,287.069855 121.685654,292.060791 115.411705,289.024506 
	C122.005226,281.875854 130.018448,285.063721 137.118454,284.018799 
	C135.722290,286.397919 132.763931,284.514343 131.146942,286.761475 
	C130.998505,287.000916 131.022339,286.974976 131.022339,286.974976 
z"/>
<path fill="#000000" opacity="1.000000" stroke="none" 
	d="
M137.963089,286.957733 
	C139.664795,285.525543 143.018707,285.394714 141.411728,281.290466 
	C145.352112,282.352783 147.726959,285.560394 151.531616,284.822449 
	C148.068146,287.094299 142.443497,288.041168 138.347183,287.175507 
	C137.993393,286.991821 137.963089,286.957733 137.963089,286.957733 
z"/>
<path fill="#000000" opacity="1.000000" stroke="none" 
	d="
M138.008636,287.008606 
	C135.674316,291.107452 133.655899,291.318726 131.042816,287.364471 
	C131.022339,286.974976 130.998505,287.000916 130.986267,287.013947 
	C133.015823,286.966553 135.057632,286.906097 137.531250,286.901703 
	C137.963089,286.957733 137.993393,286.991821 138.008636,287.008606 
z"/>
<path fill="#000000" opacity="1.000000" stroke="none" 
	d="
M192.650909,273.578735 
	C193.910172,275.910492 195.382965,277.953979 194.092606,280.361267 
	C193.342636,281.760437 191.715515,281.391266 190.458908,281.221039 
	C188.200668,280.915070 186.758926,279.654999 187.320053,277.181305 
	C187.987335,274.239655 188.867416,271.346252 189.687302,268.313599 
	C192.915024,269.139221 191.176193,271.985413 192.650909,273.578735 
z"/>
<path fill="#000000" opacity="1.000000" stroke="none" 
	d="
M229.901840,319.645355 
	C229.134033,321.203552 228.290085,322.602783 226.848557,321.460022 
	C225.282547,320.218628 225.645874,318.226349 225.956039,316.447998 
	C226.111877,315.554382 226.717850,314.897400 227.638046,315.098907 
	C229.889282,315.591949 230.125610,317.351471 229.901840,319.645355 
z"/>
</svg>